<svg height="512pt" viewBox="0 0 512 512.002" width="512pt" xmlns="http://www.w3.org/2000/svg"><path d="m404.816406 331.488281v-237.871093h-30.027344v237.871093c-10.113281 2.585938-19.683593 7.816407-27.582031 15.71875-23.488281 23.488281-23.488281 61.703125 0 85.191407 11.742188 11.746093 27.171875 17.617187 42.597657 17.617187 15.425781 0 30.851562-5.871094 42.597656-17.617187 23.488281-23.488282 23.488281-61.703126 0-85.191407-7.902344-7.902343-17.472656-13.132812-27.585938-15.71875zm6.351563 79.679688c-11.78125 11.777343-30.949219 11.777343-42.730469 0-11.777344-11.78125-11.777344-30.949219 0-42.730469 5.890625-5.890625 13.628906-8.832031 21.367188-8.832031 7.734374 0 15.472656 2.945312 21.363281 8.832031 11.78125 11.78125 11.78125 30.949219 0 42.730469zm0 0"/><path d="m479.890625 307.316406v-217.925781c0-49.671875-40.414063-89.390625-90.085937-89.390625-49.671876 0-90.085938 39.71875-90.085938 89.390625v79.179687h-39.582031v-54.464843h-30.027344v63.261719l-29.664063 29.664062c-1.347656-.640625-2.730468-1.214844-4.148437-1.722656v-82.269532l33.699219-33.699218-21.230469-21.234375-27.480469 27.480469-28.453125-28.453126-21.230469 21.234376 34.667969 34.667968v82.273438c-1.738281.621094-3.421875 1.347656-5.050781 2.171875l-29.921875-29.921875v-63.453125h-30.027344v54.449219h-53.5v30.027343h62.082031l30.613282 30.613281c-.609375 1.359376-1.148438 2.75-1.621094 4.171876h-82.9375l-34.671875-34.671876-21.234375 21.234376 28.453125 28.453124-27.476563 27.476563 21.234376 21.234375 33.695312-33.695312h83.621094c.414062 1.082031.863281 2.144531 1.359375 3.183593l-29.886719 29.859375h-63.246094v30.027344h54.449219v53.496094h30.027344v-62.285156l29.886719-29.859376c1.347656.644532 2.734374 1.214844 4.152343 1.722657v82.238281l-34.703125 34.707031 21.234375 21.230469 28.453125-28.449219 27.476563 27.476563 21.234375-21.234375-33.664063-33.660157v-82.304687c1.410157-.507813 2.792969-1.078125 4.136719-1.71875l30.164062 30.320313v63.265624h30.027344v-54.449218h24.367188c-11.335938 18.789062-17.390625 40.335937-17.390625 62.839844 0 67.378906 54.820312 122.199218 122.199219 122.199218 67.378906 0 122.195312-54.820312 122.195312-122.199218 0-30.839844-11.355469-59.886719-32.109375-82.488282zm-180.171875-108.71875v33.792969h-76.324219c-.503906-1.410156-1.078125-2.789063-1.714843-4.128906l29.660156-29.664063zm-103.746094 48.828125c0 8.101563-6.589844 14.691407-14.6875 14.691407-8.101562 0-14.691406-6.589844-14.691406-14.691407 0-8.097656 6.589844-14.691406 14.691406-14.691406 8.097656 0 14.6875 6.589844 14.6875 14.691406zm55.882813 49.507813-30.179688-30.332032c.644531-1.359374 1.222657-2.753906 1.730469-4.179687h76.3125v34.511719zm137.949219 185.039062c-50.824219 0-92.167969-41.347656-92.167969-92.167968 0-24.878907 9.808593-48.214844 27.621093-65.714844l4.492188-4.414063v-15.847656h22.199219v-30.027344h-22.199219v-30.03125h22.199219v-30.03125h-22.199219v-30.03125h22.199219v-30.027343h-22.199219v-30.03125h22.199219v-30.03125h-22.199219v-4.226563c0-33.113281 26.941406-59.363281 60.054688-59.363281 33.117187 0 60.054687 26.25 60.054687 59.363281v230.285156l4.492187 4.414063c17.8125 17.5 27.621094 40.835937 27.621094 65.710937 0 50.824219-41.347656 92.171875-92.167968 92.171875zm0 0"/></svg>