<svg xmlns="http://www.w3.org/2000/svg" xmlns:xlink="http://www.w3.org/1999/xlink" id="Capa_1" x="0" y="0" version="1.1" viewBox="0 0 512 512" xml:space="preserve" style="enable-background:new 0 0 512 512"><g><g><path d="M486.4,0H25.6c-4.71,0-8.533,3.823-8.533,8.533v102.4c0,4.71,3.823,8.533,8.533,8.533h68.267 c4.71,0,8.533-3.823,8.533-8.533v-25.6h110.933v341.333h-42.667c-4.71,0-8.533,3.823-8.533,8.533v68.267 c0,4.71,3.823,8.533,8.533,8.533h170.667c4.71,0,8.533-3.823,8.533-8.533V435.2c0-4.71-3.823-8.533-8.533-8.533h-42.667V85.333 H409.6v25.6c0,4.71,3.823,8.533,8.533,8.533H486.4c4.71,0,8.533-3.823,8.533-8.533V8.533C494.933,3.823,491.11,0,486.4,0z"/></g></g></svg>